<svg width="100" height="100" xmlns="http://www.w3.org/2000/svg">
  <path d="M10 10l10 10h20 M40 20v20 M40 40l-10 10H10 M70 10v20l10 10 M90 40h-10 M10 70h20l10-10 M40 60V40 M70 60v10l10 10 M90 80h-10 M10 90h10l10-10" fill="none" stroke="#00ff41" stroke-width="1" stroke-opacity="0.3"/>
  <circle cx="40" cy="20" r="2" fill="#00ff41" fill-opacity="0.5"/>
  <circle cx="10" cy="40" r="2" fill="#00ff41" fill-opacity="0.5"/>
  <circle cx="70" cy="10" r="2" fill="#00ff41" fill-opacity="0.5"/>
  <circle cx="90" cy="40" r="2" fill="#00ff41" fill-opacity="0.5"/>
  <circle cx="40" cy="60" r="2" fill="#00ff41" fill-opacity="0.5"/>
  <circle cx="10" cy="70" r="2" fill="#00ff41" fill-opacity="0.5"/>
  <circle cx="70" cy="60" r="2" fill="#00ff41" fill-opacity="0.5"/>
  <circle cx="90" cy="80" r="2" fill="#00ff41" fill-opacity="0.5"/>
</svg>
